<?xml version="1.0" encoding="UTF-8" standalone="no"?>
<!DOCTYPE svg PUBLIC "-//W3C//DTD SVG 1.1//EN" "http://www.w3.org/Graphics/SVG/1.1/DTD/svg11.dtd">
<svg width="100%" height="100%" viewBox="0 0 951 253" version="1.1" xmlns="http://www.w3.org/2000/svg" xmlns:xlink="http://www.w3.org/1999/xlink" xml:space="preserve" xmlns:serif="http://www.serif.com/" style="fill-rule:evenodd;clip-rule:evenodd;stroke-linejoin:round;stroke-miterlimit:2;">
    <g transform="matrix(1,0,0,1,-12014,-11199.9)">
        <g transform="matrix(2.19403,0,0,2.19403,13557,11420.4)">
            <g transform="matrix(2.2816,0,0,2.2816,-703.26,-162.775)">
                <path d="M19.5,34.7C15.6,34.8 11.3,35.2 10.1,35.5C11.3,35.2 15.6,34.8 19.5,34.7M21.9,40.3L19.7,40.3C19.5,41.2 19.4,42.1 19.3,43L17.7,52.7L20.4,52.7C23.9,52.7 26.5,49.8 26.5,45.4C26.5,42.3 24.7,40.3 21.9,40.3M51.7,50.8C50.1,50.8 49,53.9 48.4,56.4L49.3,56.4C51.3,56.4 52.9,55.1 53.1,53.5L53.1,52.9C53.1,52.4 53,51.9 52.7,51.5C52.6,51.1 52.2,50.8 51.7,50.8M104,51.2C103.9,51.2 103.9,51.1 103.8,51.1C103.7,51 103.5,51 103.4,51C103.1,51 102.8,51.1 102.6,51.3C102.5,51.4 102.4,51.4 102.3,51.5C102.2,51.6 102.2,51.7 102.1,51.7C101.6,52.4 101.2,53.1 101,53.9C100.9,54 100.9,54.2 100.8,54.4C100.6,54.9 100.5,55.5 100.3,56L100,57.3C99.8,58.7 99.6,60.2 99.6,61.7L99.7,63.9C99.684,64.073 99.719,64.246 99.8,64.4L100.1,65.6L100.4,66.2C100.7,66.8 101,67.1 101.4,67.1C101.6,67.1 101.7,67.1 101.9,67C102.1,66.9 102.3,66.8 102.5,66.6C103.1,65.9 103.7,64.7 104.2,63.1L104.5,61.9L104.8,60.4L105,58.3C105.1,57.6 105.1,57 105.1,56.3C105.2,54.9 105,53.4 104.5,52C104.5,51.8 104.3,51.4 104,51.2M180.6,60L181.1,56.6C183.3,56.4 185,56 186.3,55.1C187.9,54.1 189.9,52.2 189.9,48.5C189.9,46.5 189.4,44.6 188.5,42.9C187.5,41.1 185.6,40 183.6,40L183.3,40C183.2,37 180.7,34.7 177.7,34.6C174.9,34.6 172.1,34.8 169.4,35.2C167,35.6 165.1,37.8 164.7,40.2C164.7,40.3 158.3,40.2 154.1,40.2C150.8,40.2 149.1,41.8 149.1,41.8C149.1,41.8 147.5,39.7 143.2,40.2C141.1,40.3 139.1,40.6 137,41C137.4,38.4 137.7,35.8 137.8,33.2L137.8,33C137.8,29.9 135.3,27.4 132.2,27.3C128.1,27.3 123.4,27.9 121,28.4C118.4,29.1 116.6,31.5 116.7,34.2C116.8,36.6 115.7,43.8 115.7,43.8C113.1,41.6 109.6,40.4 105.6,40.4C102,40.4 98.4,41.2 95.2,42.9C94.1,41.7 92.5,40.9 90.9,41C87.7,41 85.3,41 83,41.2C81.2,41.3 79.6,42.3 78.6,43.9C78.5,43.8 78.5,43.7 78.4,43.6C77.4,41.8 75.5,40.7 73.5,40.7C69.3,40.7 62,41.9 61.7,42.1C59.2,41 56.5,40.4 53.7,40.5C49.6,40.4 45.6,41.5 42.2,43.6C41.6,35.1 34.3,29.3 23.9,29.3C23.9,29.3 11.2,29.8 8.9,30.3C6.2,30.9 4.3,33.4 4.5,36.1C4.5,38 4.4,40 4,42.1L0.3,65.9C0,67.3 -0.7,71.6 2,74.8C3.1,76.1 5.1,77.6 8.6,77.6C10.2,77.6 14.5,77.4 18,75.8C18.9,75.4 19.7,74.7 20.3,73.9C22.2,76.1 25,77.7 29.1,77.7C32.7,77.7 36.2,76.8 39.4,75.2C42.3,76.9 45.6,77.8 49,77.7C55.1,77.7 60.8,75.3 64.4,71.2C66.4,76.3 70.1,77.5 73.1,77.5C75.6,77.5 78.6,77.2 81.6,75.7C84.1,74.5 85.2,70.4 85.7,69.5C88.2,74.5 93.2,77.6 99.5,77.6C104.5,77.6 109.4,76 113.4,72.8C113.7,73.3 114,73.7 114.3,74.1C115.6,75.6 118.1,77.4 122.4,77.4C125.5,77.5 128.6,76.6 131.1,74.9C132.5,76.3 134.8,77.6 138.3,77.6C140.9,77.6 143.5,76.9 145.8,75.7C147.5,76.9 149.7,77.5 152.3,77.5C156.4,77.5 160.1,76.1 162.5,73.6C164.5,75.6 168,77.6 174,77.6C179.5,77.6 185,74.1 187.8,69.4C190,65.9 187.6,59.7 180.6,60M36.5,45.3C36.2,49.7 33.4,53.3 29.1,55.6L33,65.9C34.1,68.7 34.8,69.8 36,70.7C35.7,70.9 35.4,71 35.1,71.1C33.2,71.7 31.1,72.1 29.1,72C27.1,72 24.4,71.5 22.7,66.6L19.8,58.2L16.9,58.2L15.6,66.2C15.4,67.1 15.3,68 15.3,68.9L15.3,69.1C15.3,69.6 15.4,70.1 15.6,70.6C13.4,71.6 10.4,71.9 8.6,71.9C7.1,71.9 5.7,71.4 5.6,68.8C5.6,68.1 5.7,67.4 5.8,66.7L9.5,42.9C9.8,41.1 10,39.2 10,37.4L10,35.5C11.2,35.2 15.5,34.7 19.4,34.7L23.7,34.7C26.3,34.6 28.8,35.2 31.2,36.2C31.8,36.5 32.5,36.9 33,37.3C33.5,37.7 34,38.2 34.5,38.7C35.1,39.5 35.6,40.3 36,41.3C36.3,42.3 36.5,43.3 36.5,44.4L36.5,45.3M50.8,61.3C50.4,61.3 50,61.4 49.7,61.4L48.1,61.4L48.1,62C48.3,64.8 49.5,67.2 52.1,67.2L52.7,67.2C55.2,66.9 56.7,65.1 58,65.1C58.6,65.2 59.2,65.4 59.7,65.7L61,66.5C60.1,67.8 59,68.9 57.6,69.7C55,71.4 52,72.2 48.9,72.2C42.3,72.2 38.3,68.5 38,62.6L38,61.6C38,54.1 42.9,45.9 53.8,45.9C55.4,45.9 57,46.1 58.4,46.6C61,47.5 62.5,49.4 62.5,51.9C62.6,54.9 60.7,60.4 50.8,61.3M81.1,66.1C80.2,67.6 79.4,69.2 78.8,70.9C77,71.8 75,72 73,72C71.3,72 69.7,71.2 68.9,66.8L66.4,54.3C65.9,51.8 65.1,49.3 64.1,46.9C65,46.7 65.9,46.5 66.8,46.4C67,46.4 67.2,46.3 67.4,46.3L67.5,46.3C67.7,46.3 67.9,46.3 68.2,46.2L68.3,46.2C68.8,46.2 69.3,46.1 69.9,46.1L73.6,46.1C74,46.9 74.4,47.7 74.7,48.5C74.8,48.8 74.9,49 75,49.3C75.2,49.9 75.3,50.5 75.4,51.1L77.1,62.5C78.5,59.8 79.8,57 81,54.2C81.8,52.3 82.5,50.4 83,48.4C83.2,47.7 83.3,47.1 83.5,46.4C84.1,46.3 84.7,46.3 85.3,46.3L90.9,46.3C90.7,48 90.3,49.6 89.6,51.2C87.2,56.3 84.2,61.2 81.1,66.1M112.2,66.2C111.3,67.4 110.2,68.4 109,69.2C108.8,69.4 108.5,69.5 108.3,69.7C108.3,69.7 108.2,69.7 108.2,69.8C108,69.9 107.8,70.1 107.6,70.2C107.6,70.2 107.5,70.2 107.5,70.3C107.3,70.4 107.1,70.5 106.8,70.6C106.8,70.6 106.7,70.6 106.7,70.7C106.4,70.8 106.2,70.9 105.9,71C105.4,71.2 104.8,71.4 104.2,71.6C104.1,71.6 104.1,71.6 104,71.7C103.8,71.8 103.6,71.8 103.4,71.9C103.3,71.9 103.2,71.9 103.1,72C102.9,72 102.7,72.1 102.5,72.1C102.4,72.1 102.3,72.1 102.2,72.2C102,72.2 101.8,72.3 101.6,72.3L98,72.3C97.8,72.3 97.5,72.2 97.3,72.2C97.2,72.2 97,72.1 96.9,72.1C96.7,72.1 96.5,72 96.3,72C96.2,72 96,71.9 95.9,71.9C95.7,71.8 95.5,71.8 95.4,71.7C95.3,71.6 95.1,71.6 95,71.5C94.8,71.4 94.7,71.4 94.5,71.3C94.4,71.2 94.2,71.2 94.1,71.1C94,71 93.8,70.9 93.7,70.8C93.6,70.7 93.5,70.6 93.3,70.6C93.2,70.5 93,70.4 92.9,70.3L91.7,69.1C91.6,69 91.5,68.9 91.4,68.7C91.3,68.6 91.2,68.5 91.1,68.3C90.995,68.19 90.925,68.05 90.9,67.9C90.8,67.8 90.8,67.6 90.7,67.5C90.6,67.4 90.6,67.2 90.5,67.1C90.4,67 90.4,66.8 90.3,66.7C90.2,66.5 90.2,66.4 90.1,66.2C90.1,66.1 90,65.9 90,65.8C90,65.6 89.9,65.5 89.9,65.3C89.9,65.2 89.8,65 89.8,64.9C89.7,64.4 89.6,63.9 89.6,63.4L89.6,62.2C89.6,56.6 92.2,51.9 96.2,49.1C96.9,48.6 97.5,48.2 98.3,47.9C99,47.6 99.8,47.3 100.5,47L100.6,47C101,46.9 101.3,46.8 101.7,46.7L101.8,46.7C102.2,46.6 102.5,46.6 102.9,46.5L103,46.5C103.4,46.4 103.8,46.4 104.1,46.4L106.9,46.4C107.2,46.4 107.4,46.5 107.7,46.5L107.9,46.5C108.2,46.6 108.5,46.6 108.8,46.7C108.9,46.7 109,46.8 109.1,46.8C109.3,46.9 109.5,46.9 109.7,47C109.8,47 109.9,47.1 110,47.1C110.2,47.2 110.5,47.3 110.7,47.4C110.8,47.4 110.9,47.5 111,47.6C111.1,47.7 111.3,47.8 111.4,47.9C111.5,48 111.6,48 111.7,48.1C111.814,48.224 111.95,48.325 112.1,48.4C112.3,48.5 112.4,48.7 112.6,48.8L113.4,49.6C113.6,49.9 113.9,50.2 114.1,50.5C114.2,50.7 114.3,50.8 114.4,51C114.4,51.1 114.5,51.1 114.5,51.2C115.3,52.9 115.8,54.7 115.7,56.6C115.6,59.8 114.4,63.3 112.2,66.2M131.9,36.9L131.3,41.1L130.2,48.3L127.4,66.1C127.4,66.3 127.3,66.5 127.3,66.7L127.3,67.4C127.3,67.5 127.4,67.6 127.4,67.7L127.4,67.8C127.4,67.9 127.5,68 127.6,68.1L128,68.5C128.4,68.8 128.9,68.9 129.4,68.9C129,69.5 128.5,70 127.9,70.3C127.8,70.3 127.8,70.4 127.7,70.4C127.6,70.5 127.4,70.6 127.3,70.7C127.2,70.8 127.1,70.8 127,70.8C126.9,70.9 126.7,70.9 126.6,71C126.4,71.1 126.1,71.2 125.8,71.3C125.7,71.3 125.6,71.4 125.4,71.4C125.2,71.5 125,71.5 124.8,71.5C124.7,71.5 124.6,71.5 124.4,71.6C124.2,71.6 124,71.7 123.7,71.7L120.7,71.7C120.6,71.7 120.5,71.7 120.5,71.6C120.4,71.6 120.4,71.6 120.3,71.5C120.2,71.5 120.1,71.4 120.1,71.4C120.1,71.4 120,71.4 120,71.3C119.9,71.3 119.8,71.2 119.7,71.2L119.6,71.2C119.2,71 118.8,70.7 118.5,70.3L118.5,70.2C118.4,70.1 118.4,70 118.3,69.9C118.3,69.9 118.3,69.8 118.2,69.8C118.1,69.7 118.1,69.6 118.1,69.5L118.1,69.4C118.1,69.3 118,69.2 118,69L118,68.9C118,68.8 117.9,68.6 117.9,68.5L117.9,67.9C117.9,67.4 117.9,67 118,66.5L122.1,41C122.2,40.7 122.2,40.4 122.2,40C122.4,38.8 122.5,37.7 122.6,36.5L122.6,33.6C122.8,33.6 122.9,33.5 123.1,33.5C123.3,33.5 123.5,33.4 123.7,33.4C124,33.3 124.4,33.3 124.8,33.2C125,33.2 125.2,33.2 125.4,33.1C126,33 126.6,33 127.3,32.9C127.8,32.9 128.2,32.8 128.7,32.8C129.9,32.7 131.2,32.7 132.4,32.7C132.4,33.5 132.3,34.5 132.3,35.5C132,36.2 131.9,36.6 131.9,36.9M159.2,69C158,70.8 155.4,72 152.3,72L151.3,72C151,72 150.7,71.9 150.4,71.8L149.5,71.5C148.1,70.9 147.3,69.5 147.7,66.8L147.8,66.3C147.7,66.6 147.5,66.8 147.3,67.1C147,67.6 146.6,68.1 146.3,68.5C145.9,68.9 145.5,69.3 145.1,69.6C144.9,69.8 144.7,69.9 144.5,70.1C144.09,70.402 143.655,70.67 143.2,70.9C142.4,71.3 141.5,71.7 140.6,71.9C140.2,72 139.8,72.1 139.4,72.1C139,72.1 138.7,72.2 138.3,72.2L137.4,72.2C137.3,72.2 137.1,72.2 137,72.1C136.9,72.1 136.8,72.1 136.7,72C136.6,72 136.5,71.9 136.4,71.9C136.3,71.9 136.2,71.8 136.1,71.8C136.1,71.8 136,71.8 136,71.7C133.7,70.7 133,68 133.6,64.4L135.2,54.2C135.2,53.9 135.3,53.6 135.3,53.4L135.3,53.1C135.3,52.9 135.3,52.8 135.4,52.6L135.4,51.8C135.5,51.2 135.5,50.7 135.5,50.1L135.5,48.5C135.5,47.9 135.5,47.4 135.4,46.7C135.5,46.7 135.6,46.6 135.8,46.6C135.9,46.6 136,46.6 136.2,46.5L145.3,46.5C145.4,48.7 144.9,51.7 144.5,54.5L143.1,63.1C143.1,63.3 142.9,64.8 142.9,65.2C142.9,65.6 142.9,66.1 143,66.5C143,66.7 143.1,66.9 143.2,67.2C143.3,67.3 143.4,67.5 143.5,67.5L143.6,67.5C143.9,67.5 144.4,67.2 145,66.6C145.9,65.7 146.6,64.6 147.2,63.5C147.4,63 147.7,62.6 147.9,62C148.1,61.5 148.3,60.9 148.5,60.4C148.6,60.1 148.7,59.8 148.7,59.5L149.4,54.6C149.5,53.9 149.6,53.3 149.7,52.7L150,49.9C150.1,49 150.2,48 150.2,46.9C151.4,46.8 156.1,46.2 159.7,46.3C159.6,49 159.3,51.7 158.8,54.4L156.9,66.4C156.9,68.1 157.7,69 159.2,69M164.8,65.8C164.8,65.2 164.8,64.6 164.9,64.1L166.9,51.6C166.5,51.6 166.3,51.7 166.1,51.7C165.6,51.8 165.4,51.8 165.2,51.9C164.9,52 164.5,52 164.2,52.1C163.9,50.313 163.9,48.487 164.2,46.7C164.6,46.7 165,46.7 165.6,46.6L168,46.6C168.7,44.7 169.8,43.1 170.2,40.9C170.8,40.8 171.6,40.7 172.4,40.6C172.8,40.6 173,40.5 173.3,40.5C173.6,40.5 173.9,40.5 174.3,40.4C175.3,40.3 176.4,40.3 177.7,40.3C177.6,42 177.4,44.1 177.1,46.6L178.9,46.6C181.7,46.6 182.8,46.3 183.7,45.6C184.2,46.5 184.5,47.5 184.5,48.5C184.5,49.9 184.1,50.8 179.7,50.9L176.4,50.9L174.4,63.4L174.4,64.2C174.4,65.9 175.2,67.3 176.5,67.3C178.6,67.3 179.1,65.7 179.9,65.7C181.8,66 182.9,67.1 182.9,67.1C181.5,69.8 177.9,72.3 174.1,72.3C168.3,72.2 165,69.6 164.8,65.8Z" style="fill:rgb(64,14,50);fill-rule:nonzero;"/>
            </g>
        </g>
    </g>
</svg>
