<?xml version="1.0" encoding="UTF-8" standalone="no"?>
<!DOCTYPE svg PUBLIC "-//W3C//DTD SVG 1.1//EN" "http://www.w3.org/Graphics/SVG/1.1/DTD/svg11.dtd">
<svg width="100%" height="100%" viewBox="0 0 239 230" version="1.1" xmlns="http://www.w3.org/2000/svg" xmlns:xlink="http://www.w3.org/1999/xlink" xml:space="preserve" xmlns:serif="http://www.serif.com/" style="fill-rule:evenodd;clip-rule:evenodd;stroke-linejoin:round;stroke-miterlimit:2;">
    <g transform="matrix(1,0,0,1,-10746.8,-3031.17)">
        <g transform="matrix(1,0,0,1,-1094.75,1440.79)">
            <path d="M11943.7,1600.74L11915.8,1652.75C11915.8,1652.75 11857.7,1663.23 11857.7,1663.23C11850.6,1664.52 11844.7,1669.61 11842.5,1676.49C11840.2,1683.37 11842,1690.93 11847,1696.15L11887.8,1738.78C11887.8,1738.78 11879.8,1797.27 11879.8,1797.27C11878.9,1804.43 11881.9,1811.56 11887.8,1815.82C11893.6,1820.07 11901.3,1820.76 11907.8,1817.61L11961,1791.94C11961,1791.94 12014.2,1817.61 12014.2,1817.61C12020.7,1820.76 12028.4,1820.07 12034.2,1815.82C12040.1,1811.56 12043.1,1804.43 12042.2,1797.27L12034.2,1738.78C12034.2,1738.78 12075,1696.15 12075,1696.15C12080,1690.93 12081.8,1683.37 12079.5,1676.49C12077.3,1669.61 12071.4,1664.52 12064.3,1663.23L12006.2,1652.75C12006.2,1652.75 11978.3,1600.74 11978.3,1600.74C11974.9,1594.36 11968.2,1590.39 11961,1590.39C11953.8,1590.39 11947.1,1594.36 11943.7,1600.74ZM11961,1623.51L11986.3,1670.59C11988.1,1674.09 11991.5,1676.54 11995.4,1677.24L12048,1686.73L12011,1725.31C12008.3,1728.18 12007,1732.14 12007.6,1736.07L12014.8,1789.02L11966.7,1765.78C11963.1,1764.06 11958.9,1764.06 11955.3,1765.78L11907.2,1789.02L11914.5,1736.07C11915,1732.14 11913.7,1728.18 11911,1725.31L11874,1686.73L11926.6,1677.24C11930.5,1676.54 11933.9,1674.09 11935.7,1670.59L11961,1623.51Z" style="fill:url(#_Linear1);"/>
        </g>
    </g>
    <defs>
        <linearGradient id="_Linear1" x1="0" y1="0" x2="1" y2="0" gradientUnits="userSpaceOnUse" gradientTransform="matrix(226.351,0,0,460.903,11847.8,1722.82)"><stop offset="0" style="stop-color:rgb(191,128,63);stop-opacity:1"/><stop offset="0.19" style="stop-color:rgb(252,246,186);stop-opacity:1"/><stop offset="0.34" style="stop-color:rgb(196,155,74);stop-opacity:1"/><stop offset="0.5" style="stop-color:rgb(179,127,40);stop-opacity:1"/><stop offset="0.62" style="stop-color:rgb(199,157,59);stop-opacity:1"/><stop offset="0.75" style="stop-color:rgb(255,242,113);stop-opacity:1"/><stop offset="0.89" style="stop-color:rgb(239,218,97);stop-opacity:1"/><stop offset="0.95" style="stop-color:rgb(204,168,62);stop-opacity:1"/><stop offset="1" style="stop-color:rgb(170,119,28);stop-opacity:1"/></linearGradient>
    </defs>
</svg>
