<?xml version="1.0" encoding="UTF-8" standalone="no"?>
<!DOCTYPE svg PUBLIC "-//W3C//DTD SVG 1.1//EN" "http://www.w3.org/Graphics/SVG/1.1/DTD/svg11.dtd">
<svg width="100%" height="100%" viewBox="0 0 951 203" version="1.1" xmlns="http://www.w3.org/2000/svg" xmlns:xlink="http://www.w3.org/1999/xlink" xml:space="preserve" xmlns:serif="http://www.serif.com/" style="fill-rule:evenodd;clip-rule:evenodd;stroke-linejoin:round;stroke-miterlimit:2;">
    <g transform="matrix(1,0,0,1,-12014,-11794.5)">
        <g transform="matrix(1.34089,0,0,1.34089,11929,11353.8)">
            <path d="M730.883,480.088L724.958,480.088L724.958,330.517L730.883,330.517L730.883,480.088ZM659.292,479.633L653.363,479.633L653.363,330.062L659.292,330.062L659.292,479.633ZM245.546,409.829L245.546,449.958C245.546,457.633 246.054,463.654 251.975,469.396C258.104,475.325 266.987,477.562 279.65,477.562C302.933,477.562 313.858,468.842 313.858,449.958L313.858,409.829L286.183,409.829L286.183,450.979C286.183,456.429 283.733,459.392 279.65,459.392C275.358,459.392 273.112,456.613 273.112,450.979L273.112,409.829L245.546,409.829ZM499.079,477.475C524.321,477.475 537.829,465.262 537.829,442.65C537.829,420.417 524.217,407.75 500.012,407.75C475.6,407.75 461.887,420.417 461.887,442.746C461.887,464.883 475.496,477.475 499.079,477.475ZM447.117,409.829L418.738,409.829L418.738,476.438L447.117,476.438L447.117,409.829ZM353.529,438.438L368.396,476.433L400.625,476.433L400.625,409.829L378.85,409.829L378.85,443.738L366.55,409.829L331.754,409.829L331.754,476.433L353.529,476.433L353.529,438.438ZM574.671,438.438L589.538,476.433L621.767,476.433L621.767,409.829L599.992,409.829L599.992,443.738L587.692,409.829L552.9,409.829L552.9,476.433L574.671,476.433L574.671,438.438ZM499.908,423.213C506.45,423.213 508.013,428.992 508.013,441.6C508.013,455.679 506.35,462.092 499.804,462.092C493.363,462.092 491.704,455.783 491.704,442.967C491.704,429.517 493.154,423.213 499.908,423.213ZM244.017,375.546C243.913,376.375 243.913,377.208 243.913,377.95C243.913,390.642 255.429,398.071 277.125,398.071C298.508,398.071 310.15,390.429 310.15,376.346C310.15,364.208 303.329,360.612 286.296,354.879C277.2,351.812 271.925,351.979 271.925,347.346C271.925,344.842 273.525,343.029 277.329,343.029C281.821,343.029 284.008,346 283.804,350.371L308.375,350.371L308.375,347.567C308.375,335.8 297.733,328.708 278.1,328.708C256.508,328.708 245.042,337.096 245.042,350.158C245.042,359.517 250.854,364.933 262.779,368.354C271.512,370.858 276.537,372.925 280.333,374.604C282.342,375.492 283.004,377.471 282.725,379.35C282.342,381.942 280.779,383.538 276.838,383.538C272.004,383.538 270.642,380.637 270.642,376.1L270.642,375.546L244.017,375.546ZM392.842,396.942L450.688,396.942L450.688,379.621L421.554,379.621L421.554,371.746L448.771,371.746L448.771,354.608L421.554,354.608L421.554,347.471L449.738,347.471L449.738,330.333L392.842,330.333L392.842,396.942ZM173.717,396.942L231.563,396.942L231.563,379.621L202.425,379.621L202.425,371.746L229.908,371.746L229.908,354.608L202.425,354.608L202.425,347.471L230.612,347.471L230.612,330.333L173.717,330.333L173.717,396.942ZM380.721,330.333L317.371,330.333L317.371,348.121L335.008,348.121L335.008,396.942L363.188,396.942L363.188,348.121L380.721,348.121L380.721,330.333ZM574,358.946L588.867,396.942L621.096,396.942L621.096,330.333L599.321,330.333L599.321,364.246L587.017,330.333L552.225,330.333L552.225,396.942L574,396.942L574,358.946ZM468.312,396.942L496.038,396.942L496.038,373.213C496.962,373.121 497.879,373.121 498.596,373.121C505.246,373.121 506.238,375.537 507.292,382.767L508.013,387.679C508.417,390.642 509.238,393.7 510.158,396.942L538.296,396.942C537.067,392.033 536.142,388.05 535.737,385.083L534.813,377.95C533.567,368.308 529.9,364.687 522.442,363.208C530.042,361.342 535.737,355.608 535.737,347.608C535.737,334.283 527.338,330.333 507.087,330.333L468.312,330.333L468.312,396.942ZM107.162,396.942L113.108,353.804L119.154,396.942L148.217,396.942L162.317,330.333L139.583,330.333L133.346,372.454L127.113,330.333L99.392,330.333L93.162,371.342L87.021,330.333L63.329,330.333L77.621,396.942L107.162,396.942ZM496.038,356.858L496.038,345.25C497.267,345.158 498.292,345.158 499.213,345.158C505.454,345.158 508.213,346.675 508.213,350.813C508.213,355.046 504.733,356.95 498.083,356.95C497.475,356.95 496.758,356.95 496.038,356.858ZM761.421,329.371C758.492,329.371 755.867,330.425 753.875,332.45C751.758,334.592 750.587,337.367 750.587,340.233C750.587,343.104 751.7,345.754 753.754,347.842C755.838,349.954 758.521,351.104 761.421,351.104C764.258,351.104 767,349.954 769.142,347.871C771.196,345.879 772.313,343.221 772.313,340.233C772.313,337.337 771.167,334.621 769.175,332.604C767.092,330.487 764.379,329.371 761.421,329.371ZM770.867,340.329C770.867,342.829 769.9,345.154 768.121,346.875C766.25,348.683 763.921,349.65 761.358,349.65C758.946,349.65 756.563,348.654 754.779,346.842C752.996,345.033 752.004,342.708 752.004,340.233C752.004,337.762 753.029,335.346 754.871,333.475C756.592,331.721 758.917,330.788 761.45,330.788C764.05,330.788 766.371,331.754 768.179,333.596C769.929,335.346 770.867,337.696 770.867,340.329ZM761.721,333.871L757.075,333.871L757.075,346.183L759.396,346.183L759.396,340.929L761.692,340.929L764.196,346.183L766.792,346.183L764.05,340.567C765.825,340.2 766.85,338.996 766.85,337.246C766.85,335.013 765.163,333.871 761.721,333.871ZM761.296,335.379C763.471,335.379 764.467,335.979 764.467,337.488C764.467,338.933 763.471,339.45 761.358,339.45L759.396,339.45L759.396,335.379L761.296,335.379Z" style="fill:rgb(64,14,50);"/>
        </g>
    </g>
</svg>
